<svg width="122" height="26" viewBox="0 0 122 26" fill="none" xmlns="http://www.w3.org/2000/svg">
<path d="M9.5 5H7.5V7H5.5V19H7.5V21H9.5V19H11.5V7H9.5V5ZM19.5 9H17.5V5H15.5V9H13.5V16H15.5V21H17.5V16H19.5V9Z" fill="#2E3032"/>
<rect x="99.25" y="2.5" width="20" height="20" rx="10" fill="#E5F64A"/>
<path d="M31.1408 19.5V6.40909H39.655V8.39702H33.5123V11.951H39.214V13.9389H33.5123V17.5121H39.7061V19.5H31.1408ZM41.8443 19.5V18.0298L46.9068 11.6825V11.5994H42.0105V9.68182H49.7385V11.2607L44.9189 17.4993V17.5824H49.9047V19.5H41.8443ZM53.5178 23.1818C53.2024 23.1818 52.9105 23.1563 52.642 23.1051C52.3778 23.0582 52.1669 23.0028 52.0092 22.9389L52.5462 21.1364C52.8828 21.2344 53.1832 21.2813 53.4474 21.277C53.7116 21.2727 53.9439 21.1896 54.1442 21.0277C54.3487 20.87 54.5213 20.6058 54.6619 20.2351L54.8601 19.7045L51.2997 9.68182H53.7543L56.017 17.0966H56.1193L58.3885 9.68182H60.8494L56.9183 20.6889C56.7351 21.2088 56.4922 21.6541 56.1896 22.0249C55.8871 22.3999 55.5163 22.6854 55.0774 22.8814C54.6428 23.0817 54.1229 23.1818 53.5178 23.1818ZM69.6673 10.0078C69.6076 9.44957 69.3562 9.01491 68.913 8.70384C68.4741 8.39276 67.9031 8.23722 67.1999 8.23722C66.7056 8.23722 66.2816 8.31179 65.9279 8.46094C65.5742 8.61008 65.3036 8.8125 65.1161 9.06818C64.9286 9.32386 64.8327 9.61577 64.8285 9.94389C64.8285 10.2166 64.8903 10.4531 65.0138 10.6534C65.1417 10.8537 65.3143 11.0241 65.5316 11.1648C65.7489 11.3011 65.9897 11.4162 66.2539 11.5099C66.5181 11.6037 66.7844 11.6825 67.0529 11.7464L68.2802 12.0533C68.7745 12.1683 69.2496 12.3239 69.7056 12.5199C70.1658 12.7159 70.5771 12.9631 70.9393 13.2614C71.3058 13.5597 71.5955 13.9197 71.8086 14.3416C72.0217 14.7635 72.1282 15.2578 72.1282 15.8246C72.1282 16.5916 71.9322 17.267 71.5401 17.8509C71.1481 18.4304 70.5813 18.8842 69.8398 19.2124C69.1026 19.5362 68.2099 19.6982 67.1616 19.6982C66.1431 19.6982 65.2589 19.5405 64.5089 19.2251C63.7631 18.9098 63.1793 18.4496 62.7575 17.8445C62.3398 17.2393 62.114 16.5021 62.0799 15.6328H64.413C64.4471 16.0888 64.5877 16.468 64.8349 16.7706C65.082 17.0732 65.4038 17.299 65.8001 17.4482C66.2006 17.5973 66.6481 17.6719 67.1424 17.6719C67.658 17.6719 68.1097 17.5952 68.4975 17.4418C68.8896 17.2841 69.1964 17.0668 69.418 16.7898C69.6396 16.5085 69.7525 16.1804 69.7567 15.8054C69.7525 15.4645 69.6523 15.1832 69.4563 14.9616C69.2603 14.7358 68.9854 14.5483 68.6317 14.3991C68.2823 14.2457 67.8732 14.1094 67.4045 13.9901L65.9151 13.6065C64.837 13.3295 63.9847 12.9098 63.3583 12.3473C62.7362 11.7805 62.4251 11.0284 62.4251 10.0909C62.4251 9.3196 62.6339 8.64418 63.0515 8.06463C63.4734 7.48509 64.0465 7.03551 64.771 6.71591C65.4954 6.39204 66.3157 6.23011 67.2319 6.23011C68.1609 6.23011 68.9748 6.39204 69.6737 6.71591C70.3768 7.03551 70.9286 7.48082 71.3292 8.05185C71.7298 8.61861 71.9364 9.2706 71.9492 10.0078H69.6673ZM79.0428 9.68182V11.4716H73.3986V9.68182H79.0428ZM74.7921 7.32955H77.106V16.5469C77.106 16.858 77.1529 17.0966 77.2466 17.2628C77.3446 17.4247 77.4725 17.5355 77.6301 17.5952C77.7878 17.6548 77.9625 17.6847 78.1543 17.6847C78.2992 17.6847 78.4313 17.674 78.5506 17.6527C78.6742 17.6314 78.7679 17.6122 78.8319 17.5952L79.2218 19.4041C79.0982 19.4467 78.9213 19.4936 78.6912 19.5447C78.4654 19.5959 78.1884 19.6257 77.8603 19.6342C77.2807 19.6513 76.7587 19.5639 76.2942 19.3722C75.8297 19.1761 75.4611 18.8736 75.1884 18.4645C74.9199 18.0554 74.7878 17.544 74.7921 16.9304V7.32955ZM85.1552 19.6918C84.1964 19.6918 83.3654 19.4808 82.6623 19.0589C81.9592 18.6371 81.4137 18.0469 81.0259 17.2884C80.6424 16.5298 80.4506 15.6435 80.4506 14.6293C80.4506 13.6151 80.6424 12.7266 81.0259 11.9638C81.4137 11.201 81.9592 10.6087 82.6623 10.1868C83.3654 9.76491 84.1964 9.55398 85.1552 9.55398C86.114 9.55398 86.945 9.76491 87.6481 10.1868C88.3512 10.6087 88.8945 11.201 89.2781 11.9638C89.6658 12.7266 89.8597 13.6151 89.8597 14.6293C89.8597 15.6435 89.6658 16.5298 89.2781 17.2884C88.8945 18.0469 88.3512 18.6371 87.6481 19.0589C86.945 19.4808 86.114 19.6918 85.1552 19.6918ZM85.168 17.8381C85.6879 17.8381 86.1225 17.6953 86.4719 17.4098C86.8214 17.12 87.0813 16.7322 87.2518 16.2464C87.4265 15.7607 87.5138 15.2195 87.5138 14.6229C87.5138 14.022 87.4265 13.4787 87.2518 12.9929C87.0813 12.5028 86.8214 12.1129 86.4719 11.8232C86.1225 11.5334 85.6879 11.3885 85.168 11.3885C84.6353 11.3885 84.1921 11.5334 83.8384 11.8232C83.489 12.1129 83.2269 12.5028 83.0522 12.9929C82.8817 13.4787 82.7965 14.022 82.7965 14.6229C82.7965 15.2195 82.8817 15.7607 83.0522 16.2464C83.2269 16.7322 83.489 17.12 83.8384 17.4098C84.1921 17.6953 84.6353 17.8381 85.168 17.8381ZM96.1064 19.6918C95.1262 19.6918 94.2846 19.4766 93.5815 19.0462C92.8826 18.6158 92.3436 18.0213 91.9643 17.2628C91.5893 16.5 91.4018 15.6222 91.4018 14.6293C91.4018 13.6321 91.5936 12.7521 91.9771 11.9893C92.3606 11.2223 92.9018 10.6257 93.6007 10.1996C94.3038 9.76918 95.1348 9.55398 96.0936 9.55398C96.8904 9.55398 97.5957 9.70099 98.2093 9.99503C98.8272 10.2848 99.3194 10.696 99.6859 11.2287C100.052 11.7571 100.261 12.375 100.312 13.0824H98.1007C98.0112 12.6094 97.7981 12.2152 97.4615 11.8999C97.1291 11.5803 96.6838 11.4205 96.1255 11.4205C95.6525 11.4205 95.237 11.5483 94.8791 11.804C94.5211 12.0554 94.242 12.4176 94.0417 12.8906C93.8457 13.3636 93.7477 13.9304 93.7477 14.5909C93.7477 15.2599 93.8457 15.8352 94.0417 16.3168C94.2377 16.794 94.5126 17.1626 94.8663 17.4226C95.2243 17.6783 95.644 17.8061 96.1255 17.8061C96.4664 17.8061 96.7711 17.7422 97.0396 17.6143C97.3123 17.4822 97.5403 17.2926 97.7235 17.0455C97.9068 16.7983 98.0325 16.4979 98.1007 16.1442H100.312C100.257 16.8388 100.052 17.4545 99.6987 17.9915C99.345 18.5241 98.8635 18.9418 98.2541 19.2443C97.6447 19.5426 96.9288 19.6918 96.1064 19.6918ZM104.322 16.419L104.315 13.6257H104.686L108.214 9.68182H110.918L106.578 14.5142H106.099L104.322 16.419ZM102.212 19.5V6.40909H104.526V19.5H102.212ZM108.374 19.5L105.178 15.032L106.738 13.402L111.142 19.5H108.374ZM120.22 12.277L118.111 12.5071C118.051 12.294 117.947 12.0938 117.798 11.9062C117.653 11.7188 117.457 11.5675 117.21 11.4524C116.963 11.3374 116.66 11.2798 116.302 11.2798C115.82 11.2798 115.416 11.3842 115.088 11.593C114.764 11.8018 114.604 12.0724 114.608 12.4048C114.604 12.6903 114.708 12.9226 114.921 13.1016C115.139 13.2805 115.497 13.4276 115.995 13.5426L117.67 13.9006C118.599 14.1009 119.289 14.4183 119.741 14.853C120.197 15.2876 120.427 15.8565 120.431 16.5597C120.427 17.1776 120.246 17.723 119.888 18.196C119.534 18.6648 119.042 19.0312 118.411 19.2955C117.781 19.5597 117.056 19.6918 116.238 19.6918C115.036 19.6918 114.069 19.4403 113.336 18.9375C112.603 18.4304 112.166 17.7251 112.026 16.8217L114.282 16.6044C114.384 17.0476 114.602 17.3821 114.934 17.608C115.267 17.8338 115.699 17.9467 116.232 17.9467C116.781 17.9467 117.222 17.8338 117.555 17.608C117.892 17.3821 118.06 17.103 118.06 16.7706C118.06 16.4893 117.951 16.2571 117.734 16.0739C117.521 15.8906 117.188 15.75 116.737 15.652L115.062 15.3004C114.12 15.1044 113.423 14.7741 112.972 14.3097C112.52 13.8409 112.296 13.2486 112.301 12.5327C112.296 11.9276 112.46 11.4034 112.793 10.9602C113.129 10.5128 113.596 10.1676 114.193 9.92472C114.794 9.67756 115.486 9.55398 116.27 9.55398C117.421 9.55398 118.326 9.79901 118.987 10.2891C119.651 10.7791 120.063 11.4418 120.22 12.277Z" fill="#2E3032"/>
</svg>
